<svg id="Layer_1" data-name="Layer 1" xmlns="http://www.w3.org/2000/svg" viewBox="0 0 976.26 461.44"><defs><style>.cls-1{fill:#fff;}</style></defs><path class="cls-1" d="M606.84,373.74c8.7-.84,17.06-1.93,25.46-2.38,6.87-.36,13.88-.66,20.66.27,10.76,1.48,14.23,9.38,9.1,19-3.88,7.31-9.68,13-16,18.1-8.63,7-17.39,13.89-26.17,20.73a4.8,4.8,0,0,0-2,5.2c2.94,19.65,5.94,39.28,8.42,59a67.11,67.11,0,0,1-.45,17.73c-1.4,9.63-6.79,14.38-16.46,15.34-8.06.8-15.92-.66-23.71-2.62-19.1-4.76-36.85-12.95-54.21-22-3.4-1.78-5.67-1.84-8.84.6-9.92,7.62-20,15.13-30.35,22.13-8.61,5.81-17.89,10.54-28.56,11.49a22.67,22.67,0,0,1-4.2,0c-7.19-.65-10.9-4.62-9.64-11.67a77.34,77.34,0,0,1,5.54-18.86c8.44-18.33,17-36.63,26.43-54.49q23.06-43.86,47.33-87.09c7.77-13.79,16.73-26.95,25.68-40,2.91-4.25,7.18-7.8,11.43-10.85,6.39-4.6,12.48-3.65,18.11,1.81a46.8,46.8,0,0,1,11.81,19.88c3.63,11.51,6.55,23.25,9.76,34.89.3,1.13.52,2.28.87,3.77m-10.72,9.16c-23.91,2.5-47,4.87-70.1,7.41-1,.11-2.32,1.42-2.87,2.5-12.39,24.48-24.65,49-37,73.49-1.2,2.36-.84,3.64,1.4,4.91q17.63,10,35.15,20.1c1.84,1.08,3,.73,4.58-.46,7.38-5.64,14.92-11.08,22.29-16.73q26.63-20.42,53.11-41c1.07-.84,2.22-2.66,2.05-3.83-2.15-14.74-4.5-29.45-6.91-44.16-.15-.89-1.2-1.64-1.67-2.24m10,56.12-73.67,56.66a9.77,9.77,0,0,0,1.41,1.1c13.3,6.7,26.68,13.38,41.14,17.17a160.88,160.88,0,0,0,25.12,4.12c5.64.56,9.73-2.57,11-8.08a53.79,53.79,0,0,0,1.57-15.65c-1-13.32-2.65-26.62-4.17-39.91-.57-5-1.51-9.89-2.37-15.41m-77.32-57,67.23-7.31a14.26,14.26,0,0,0-.13-2.38c-2.55-10.68-4.85-21.45-7.83-32a54.66,54.66,0,0,0-6.22-13.44c-4.25-7-9.91-7.86-15.81-2.27a70,70,0,0,0-10.83,13.19c-7.83,12.41-15.19,25.1-22.71,37.69-1.2,2-2.3,4-3.7,6.53m-45.94,92a8,8,0,0,0-.94,1.27c-5.31,12.17-10.68,24.29-15.82,36.53a25.29,25.29,0,0,0-1.58,7.89c-.34,4.81,2.17,7.11,6.76,5.83a46.21,46.21,0,0,0,12.23-4.88c11.69-7.35,23.09-15.17,34.61-22.79.59-.39,1.24-.72,2.07-1.2L482.89,474M616,424c2.26-1.74,4-3.05,5.74-4.47,9.2-7.64,18.48-15.19,27.49-23.05a29.45,29.45,0,0,0,5.95-8c2.17-3.91.75-7-3.59-8.19a20.87,20.87,0,0,0-6.38-.82c-7.86.34-15.71.87-23.56,1.4-4.25.28-8.5.72-13.12,1.12,2.5,14.05,4.93,27.67,7.47,42" transform="translate(-51.87 -309.28)"/><path class="cls-1" d="M554.45,309.28c-11.68,8.47-18.36,20.05-25.35,31.29-22.77,36.59-43.82,74.16-63.88,112.3-9.33,17.76-18.07,35.85-26.8,53.92a104.13,104.13,0,0,0-5.69,15.82c-1.68,5.66-2,11.19,4.7,14.52l-.46.69a64.81,64.81,0,0,1-8.4-1.38c-5.1-1.49-8.28-5.3-7.75-10.59s1.39-10.88,3.7-15.55c9-18.08,18.48-35.89,28-53.69,1.48-2.78,1.29-4.07-1.29-5.94-10.05-7.3-20-14.81-28.2-24.24-4.11-4.7-7.61-9.69-7.4-16.39a14.24,14.24,0,0,1,7.1-12.33c5.57-3.51,11.93-4.34,18.22-5.27,16.44-2.43,32.92-4.66,49.35-7.18a6.88,6.88,0,0,0,4-3.11c9-14.37,17.52-29,26.81-43.19a208.18,208.18,0,0,1,17.3-22.14c3.87-4.44,9.13-7.12,16.07-7.54M456.72,449.62c10.34-19,20.21-37.08,30.25-55.45a34.91,34.91,0,0,0-3.73,0c-12.75,1.59-25.51,3.11-38.24,4.87a90.68,90.68,0,0,0-15.2,3.12c-7.35,2.34-9.34,7.52-6.16,14.52A22,22,0,0,0,427,422.2,134.33,134.33,0,0,0,438.07,434c5.88,5.33,12.16,10.23,18.65,15.62" transform="translate(-51.87 -309.28)"/><path class="cls-1" d="M51.87,689.73v-.14c0-14.24,11.24-25.91,26.7-25.91s26.56,11.52,26.56,25.77v.14c0,14.25-11.24,25.91-26.7,25.91S51.87,704,51.87,689.73Zm41.73,0v-.14c0-8.59-6.3-15.75-15.18-15.75s-15,7-15,15.61v.14c0,8.59,6.3,15.75,15.18,15.75S93.6,698.32,93.6,689.73Z" transform="translate(-51.87 -309.28)"/><path class="cls-1" d="M125.67,669.62a5.51,5.51,0,1,1,11,0v35h20.4a5,5,0,1,1,0,10H131.18a5.46,5.46,0,0,1-5.51-5.51V669.62Z" transform="translate(-51.87 -309.28)"/><path class="cls-1" d="M185.22,695.32l-16.18-22a6.5,6.5,0,0,1-1.36-3.94,5.38,5.38,0,0,1,5.51-5.3c2.51,0,4.08,1.36,5.44,3.36L190.8,685l12.38-17.68c1.36-2,3-3.29,5.3-3.29a5.11,5.11,0,0,1,5.37,5.37,6.94,6.94,0,0,1-1.43,3.87L196.24,695.1v14.46a5.51,5.51,0,0,1-11,0V695.32Z" transform="translate(-51.87 -309.28)"/><path class="cls-1" d="M232.1,669.76a5.46,5.46,0,0,1,5.51-5.51h1.22a5.67,5.67,0,0,1,5,2.86l13.32,21.69L270.55,667a5.4,5.4,0,0,1,4.94-2.79h1.22a5.46,5.46,0,0,1,5.51,5.51v39.8a5.48,5.48,0,1,1-11,0v-25l-9.66,14.89a5.15,5.15,0,0,1-9.16,0l-9.52-14.67v24.91a5.37,5.37,0,0,1-5.44,5.37,5.31,5.31,0,0,1-5.37-5.37v-40Z" transform="translate(-51.87 -309.28)"/><path class="cls-1" d="M305,670.05a5.46,5.46,0,0,1,5.51-5.51h15c11.95,0,19.18,7.09,19.18,17.32V682c0,11.6-9,17.61-20.26,17.61H316v9.95a5.51,5.51,0,1,1-11,0V670.05Zm19.76,19.75c5.51,0,8.73-3.29,8.73-7.59v-.14c0-4.94-3.44-7.59-8.95-7.59H316V689.8Z" transform="translate(-51.87 -309.28)"/><path class="cls-1" d="M364,669.62a5.51,5.51,0,0,1,11,0v40a5.51,5.51,0,0,1-11,0Z" transform="translate(-51.87 -309.28)"/><path class="cls-1" d="M395.52,707.56,413,668.12a6.82,6.82,0,0,1,6.44-4.37h.65a6.72,6.72,0,0,1,6.37,4.37l17.47,39.44a5.33,5.33,0,0,1,.57,2.22,5.22,5.22,0,0,1-5.23,5.3c-2.58,0-4.29-1.5-5.3-3.79l-3.36-7.87H408.55L405,711.65a5.41,5.41,0,0,1-5.08,3.44,5.07,5.07,0,0,1-5.08-5.15A5.61,5.61,0,0,1,395.52,707.56Zm31-13.89-6.94-16.54-6.94,16.54Z" transform="translate(-51.87 -309.28)"/><path class="cls-1" d="M493.87,689.73v-.14c0-14.24,10.74-25.91,26.13-25.91,7.52,0,12.6,2,16.75,5.08a5.5,5.5,0,0,1,2.15,4.37,5.37,5.37,0,0,1-5.44,5.37,5.77,5.77,0,0,1-3.29-1.07,16.5,16.5,0,0,0-10.24-3.58c-8.45,0-14.53,7-14.53,15.61v.14c0,8.59,5.94,15.75,14.53,15.75a16.07,16.07,0,0,0,10.88-3.94,5.1,5.1,0,1,1,6.58,7.8c-4.51,3.94-9.81,6.3-17.82,6.3A25.31,25.31,0,0,1,493.87,689.73Z" transform="translate(-51.87 -309.28)"/><path class="cls-1" d="M560.15,669.62a5.51,5.51,0,0,1,11,0v40a5.51,5.51,0,0,1-11,0Z" transform="translate(-51.87 -309.28)"/><path class="cls-1" d="M606.1,674.7H595.5a5.08,5.08,0,0,1,0-10.16h32.21a5.08,5.08,0,0,1,0,10.16h-10.6v34.86a5.51,5.51,0,0,1-11,0V674.7Z" transform="translate(-51.87 -309.28)"/><path class="cls-1" d="M664.65,695.32l-16.18-22a6.5,6.5,0,0,1-1.36-3.94,5.39,5.39,0,0,1,5.51-5.3c2.5,0,4.08,1.36,5.44,3.36L670.23,685l12.38-17.68c1.36-2,3-3.29,5.3-3.29a5.11,5.11,0,0,1,5.37,5.37,6.94,6.94,0,0,1-1.43,3.87L675.67,695.1v14.46a5.51,5.51,0,0,1-11,0Z" transform="translate(-51.87 -309.28)"/><path class="cls-1" d="M744.82,667a2.83,2.83,0,1,1,5.65,0V686.8h28.92V667a2.83,2.83,0,1,1,5.65,0v45.1a2.83,2.83,0,1,1-5.65,0v-20H750.47v20a2.83,2.83,0,1,1-5.65,0Z" transform="translate(-51.87 -309.28)"/><path class="cls-1" d="M807.74,689.73v-.14c0-13.82,10.38-25.91,25.63-25.91s25.48,12,25.48,25.77v.14c0,13.82-10.38,25.91-25.63,25.91S807.74,703.55,807.74,689.73Zm45.24,0v-.14c0-11.38-8.3-20.69-19.76-20.69s-19.61,9.16-19.61,20.55v.14c0,11.38,8.3,20.69,19.76,20.69S853,701.12,853,689.73Z" transform="translate(-51.87 -309.28)"/><path class="cls-1" d="M891.34,669.76H876.81a2.63,2.63,0,0,1-2.65-2.58,2.69,2.69,0,0,1,2.65-2.65H911.6a2.69,2.69,0,0,1,2.65,2.65,2.63,2.63,0,0,1-2.65,2.58H897.07v42.38a2.86,2.86,0,0,1-5.72,0V669.76Z" transform="translate(-51.87 -309.28)"/><path class="cls-1" d="M935.22,711.78V667.4a2.86,2.86,0,0,1,2.79-2.86h31.14a2.58,2.58,0,0,1,0,5.16H940.87v17.11h25a2.62,2.62,0,0,1,2.58,2.58,2.57,2.57,0,0,1-2.58,2.58h-25v17.54H969.5a2.58,2.58,0,0,1,0,5.16H938A2.9,2.9,0,0,1,935.22,711.78Z" transform="translate(-51.87 -309.28)"/><path class="cls-1" d="M993.91,667a2.83,2.83,0,1,1,5.65,0v42.38h26a2.63,2.63,0,0,1,2.58,2.65,2.57,2.57,0,0,1-2.58,2.58H996.7a2.86,2.86,0,0,1-2.79-2.86Z" transform="translate(-51.87 -309.28)"/><path class="cls-1" d="M322.9,751.3a1.15,1.15,0,0,1,1.13-1.16h6.44c4.57,0,7.57,2.43,7.57,6.42v.06c0,4.36-3.64,6.62-8,6.62h-4.91v6.13a1.15,1.15,0,1,1-2.29,0V751.3Zm7.28,9.86c3.35,0,5.55-1.79,5.55-4.45v-.06c0-2.89-2.17-4.39-5.43-4.39h-5.11v8.9Z" transform="translate(-51.87 -309.28)"/><path class="cls-1" d="M368.21,751.16a1.15,1.15,0,1,1,2.29,0v8h11.67v-8a1.15,1.15,0,1,1,2.29,0v18.21a1.15,1.15,0,1,1-2.29,0v-8.09H370.5v8.09a1.15,1.15,0,1,1-2.29,0Z" transform="translate(-51.87 -309.28)"/><path class="cls-1" d="M416.18,751.19a1.15,1.15,0,0,1,1.13-1.13h.32a1.41,1.41,0,0,1,1.16.66l12.28,15.66V751.12a1.12,1.12,0,1,1,2.23,0v18.26a1,1,0,0,1-1,1.07h-.12a1.56,1.56,0,0,1-1.18-.69l-12.54-16v15.66a1.12,1.12,0,1,1-2.23,0V751.19Z" transform="translate(-51.87 -309.28)"/><path class="cls-1" d="M464.12,760.32v-.06a10.32,10.32,0,1,1,20.63-.06v.06a10.25,10.25,0,0,1-10.35,10.46A10.15,10.15,0,0,1,464.12,760.32Zm18.26,0v-.06a8,8,0,0,0-8-8.35c-4.63,0-7.92,3.7-7.92,8.29v.06a8,8,0,0,0,8,8.35C479.09,768.61,482.38,764.91,482.38,760.32Z" transform="translate(-51.87 -309.28)"/><path class="cls-1" d="M515.58,751.19a1.15,1.15,0,0,1,1.13-1.13H517a1.25,1.25,0,0,1,1.07.61l7.22,10.86,7.22-10.86a1.22,1.22,0,0,1,1.07-.61h.26a1.15,1.15,0,0,1,1.13,1.13v18.18a1.15,1.15,0,0,1-1.13,1.16,1.18,1.18,0,0,1-1.16-1.16V754.29l-6.47,9.51a1.11,1.11,0,0,1-.95.58,1.16,1.16,0,0,1-1-.58l-6.44-9.48V769.4a1.12,1.12,0,1,1-2.23,0V751.19Z" transform="translate(-51.87 -309.28)"/><path class="cls-1" d="M601.35,751.3a1.15,1.15,0,0,1,1.13-1.16h6.44c4.57,0,7.57,2.43,7.57,6.42v.06c0,4.36-3.64,6.62-8,6.62h-4.91v6.13a1.15,1.15,0,1,1-2.29,0V751.3Zm7.28,9.86c3.35,0,5.55-1.79,5.55-4.45v-.06c0-2.89-2.17-4.39-5.43-4.39h-5.11v8.9Z" transform="translate(-51.87 -309.28)"/><path class="cls-1" d="M646.66,769.22V751.3a1.15,1.15,0,0,1,1.13-1.16h12.57a1,1,0,1,1,0,2.08H649v6.91h10.11a1.05,1.05,0,0,1,1,1,1,1,0,0,1-1,1H649v7.08h11.56a1,1,0,0,1,0,2.08H647.8A1.15,1.15,0,0,1,646.66,769.22Z" transform="translate(-51.87 -309.28)"/><path class="cls-1" d="M692,751.19a1.15,1.15,0,0,1,1.13-1.13h.32a1.41,1.41,0,0,1,1.16.66l12.28,15.66V751.12a1.12,1.12,0,1,1,2.23,0v18.26a1,1,0,0,1-1,1.07H708a1.56,1.56,0,0,1-1.18-.69l-12.54-16v15.66a1.12,1.12,0,1,1-2.23,0V751.19Z" transform="translate(-51.87 -309.28)"/><path class="cls-1" d="M740.86,751.16a1.15,1.15,0,1,1,2.29,0v8h11.67v-8a1.15,1.15,0,1,1,2.29,0v18.21a1.15,1.15,0,1,1-2.29,0v-8.09H743.15v8.09a1.15,1.15,0,1,1-2.29,0Z" transform="translate(-51.87 -309.28)"/></svg>