<svg xmlns="http://www.w3.org/2000/svg" viewBox="0 0 400.57 366.94"><defs><style>.cls-2{fill:#eab1b2;}</style></defs><g id="Layer_2-2" data-name="Layer 2"><path class="cls-2" d="M289,116.36c11.78-1.14,23.1-2.62,34.47-3.22,9.3-.49,18.79-.9,28,.37,14.58,2,19.27,12.69,12.33,25.77-5.25,9.89-13.1,17.56-21.64,24.51-11.68,9.51-23.53,18.81-35.43,28-2.49,2-3.22,3.85-2.74,7.05,4,26.6,8,53.19,11.4,79.87a91,91,0,0,1-.61,24c-1.88,13-9.2,19.47-22.28,20.77-10.91,1.08-21.56-.9-32.11-3.54-25.87-6.46-49.9-17.53-73.4-29.8-4.61-2.41-7.68-2.49-12,.8-13.44,10.33-27,20.5-41.1,30-11.67,7.86-24.22,14.27-38.66,15.56a31.82,31.82,0,0,1-5.69.05c-9.73-.9-14.76-6.26-13-15.8A105.39,105.39,0,0,1,84,295.21c11.44-24.82,23.06-49.59,35.78-73.77Q151,162.07,183.87,103.58c10.52-18.68,22.64-36.5,34.76-54.21,3.94-5.76,9.74-10.56,15.48-14.7,8.64-6.23,16.89-4.94,24.52,2.46s12.8,16.87,16,26.92c4.92,15.58,8.87,31.47,13.22,47.23C288.25,112.78,288.55,114.34,289,116.36Zm-14.51,12.39c-32.38,3.38-63.66,6.61-94.91,10-1.42.16-3.15,1.93-3.88,3.38-16.77,33.18-33.37,66.45-50.09,99.54-1.61,3.19-1.13,4.93,1.9,6.64q23.85,13.49,47.58,27.22c2.51,1.46,4.1,1,6.21-.62,10-7.63,20.2-15,30.18-22.65q36-27.62,71.9-55.48c1.45-1.13,3-3.6,2.78-5.19-2.91-20-6.11-39.87-9.37-59.77C276.56,130.58,275.14,129.58,274.51,128.75Zm13.58,76-99.75,76.72a15.28,15.28,0,0,0,1.9,1.5c18,9.08,36.13,18.11,55.7,23.25,11.07,2.91,22.59,4.45,34,5.58,7.64.75,13.17-3.48,14.86-10.94,1.57-6.89,2.64-14.19,2.12-21.18-1.33-18-3.58-36-5.64-54-.76-6.79-2-13.47-3.19-21Zm-104.7-77.22,91-9.9a20.26,20.26,0,0,0-.17-3.21c-3.46-14.47-6.57-29-10.61-43.36a75.32,75.32,0,0,0-8.41-18.19c-5.76-9.44-13.41-10.64-21.4-3.07a93.57,93.57,0,0,0-14.67,17.87c-10.6,16.79-20.56,34-30.75,51-1.58,2.7-3.08,5.47-5,8.84ZM121.2,252.07a9.27,9.27,0,0,0-1.27,1.73c-7.18,16.46-14.46,32.88-21.41,49.44a34.07,34.07,0,0,0-2.15,10.7c-.45,6.51,2.94,9.62,9.15,7.89,5.71-1.59,11.61-3.5,16.58-6.62,15.82-9.95,31.25-20.52,46.84-30.85.81-.53,1.68-1,2.81-1.62Zm180.19-67.66c3-2.37,5.47-4.14,7.77-6,12.45-10.35,25-20.56,37.21-31.21,3.32-2.9,5.88-6.9,8-10.8,3-5.3,1-9.43-4.84-11.09a28.07,28.07,0,0,0-8.64-1.11c-10.64.46-21.27,1.18-31.9,1.9-5.77.39-11.52,1-17.76,1.52C294.63,146.58,298,165,301.39,184.41Z"/><path class="cls-2" d="M218.08,29.08c-15.8,11.5-24.85,27.15-34.31,42.36C152.94,121,124.43,171.86,97.28,223.49c-12.65,24-24.47,48.54-36.3,73-3.28,6.8-5.53,14.15-7.69,21.42-2.28,7.67-2.66,15.15,6.34,19.67l-.62.92c-3.8-.59-7.71-.78-11.37-1.86-6.91-2-11.19-7.17-10.49-14.33s1.88-14.73,5-21c12.13-24.49,25-48.6,37.89-72.7,2-3.76,1.75-5.51-1.74-8-13.61-9.89-27-20.06-38.18-32.81-5.56-6.37-10.3-13.14-10-22.2.22-7.33,3.46-12.81,9.62-16.69,7.54-4.75,16.14-5.88,24.66-7.14,22.26-3.28,44.57-6.29,66.82-9.7,2-.31,4.22-2.37,5.38-4.21,12.16-19.46,23.72-39.3,36.29-58.47,6.94-10.58,15.12-20.42,23.43-30C201.56,33.28,208.7,29.66,218.08,29.08Zm-132.31,190c14-25.67,27.38-50.19,41-75.08a46.33,46.33,0,0,0-5,0c-17.26,2.14-34.54,4.2-51.78,6.59a125.24,125.24,0,0,0-20.58,4.22C39.42,158,36.71,165,41,174.47a30,30,0,0,0,4.54,7.46,184.46,184.46,0,0,0,15,16c7.92,7.23,16.42,13.87,25.2,21.16Z"/></g></svg>