<?xml version="1.0" encoding="utf-8"?>
<!-- Generator: Adobe Illustrator 25.4.1, SVG Export Plug-In . SVG Version: 6.00 Build 0)  -->
<svg version="1.1" id="Layer_1" xmlns="http://www.w3.org/2000/svg" xmlns:xlink="http://www.w3.org/1999/xlink" x="0px" y="0px"
	 viewBox="0 0 976.26 460.09" style="enable-background:new 0 0 976.26 460.09;" xml:space="preserve">
<g>
	<g>
		<g>
			<g>
				<path style="fill:#ED1C24;" d="M554.97,64.46c8.7-0.84,17.06-1.93,25.46-2.38c6.87-0.36,13.88-0.66,20.66,0.27
					c10.76,1.48,14.23,9.38,9.1,19.04c-3.88,7.31-9.68,12.96-15.98,18.1c-8.63,7.02-17.39,13.89-26.17,20.73
					c-1.85,1.43-2.38,2.84-2.03,5.2c2.94,19.65,5.94,39.28,8.42,59c0.73,5.81,0.39,11.91-0.45,17.73
					c-1.4,9.63-6.79,14.38-16.46,15.34c-8.06,0.8-15.92-0.66-23.71-2.62c-19.1-4.76-36.85-12.95-54.21-22.01
					c-3.4-1.78-5.67-1.84-8.84,0.6c-9.92,7.62-19.97,15.13-30.35,22.13c-8.61,5.81-17.89,10.54-28.56,11.49
					c-1.4,0.13-2.81,0.16-4.2,0.03c-7.19-0.65-10.9-4.62-9.64-11.67c1.14-6.42,2.81-12.96,5.54-18.86
					c8.44-18.33,17.03-36.63,26.43-54.49c15.37-29.24,31.12-58.3,47.33-87.09c7.77-13.79,16.73-26.95,25.68-40.04
					c2.91-4.25,7.18-7.8,11.43-10.85c6.39-4.6,12.48-3.65,18.11,1.81c5.75,5.57,9.46,12.46,11.81,19.88
					c3.63,11.51,6.55,23.25,9.76,34.89C554.4,61.82,554.62,62.97,554.97,64.46 M544.25,73.62c-23.91,2.5-47.01,4.87-70.1,7.41
					c-1.05,0.11-2.32,1.42-2.87,2.5c-12.39,24.48-24.65,49.01-37.03,73.49c-1.2,2.36-0.84,3.64,1.4,4.91
					c11.75,6.64,23.49,13.32,35.15,20.1c1.84,1.08,3.02,0.73,4.58-0.46c7.38-5.64,14.92-11.08,22.29-16.73
					c17.75-13.61,35.46-27.26,53.11-40.99c1.07-0.84,2.22-2.66,2.05-3.83c-2.15-14.74-4.5-29.45-6.91-44.16
					C545.77,74.97,544.72,74.22,544.25,73.62 M554.28,129.74c-24.87,19.12-49.17,37.81-73.67,56.66c0.75,0.59,1.03,0.93,1.41,1.1
					c13.3,6.7,26.68,13.38,41.14,17.17c8.18,2.15,16.68,3.29,25.12,4.12c5.64,0.56,9.73-2.57,10.97-8.08
					c1.16-5.08,1.95-10.48,1.57-15.65c-0.98-13.32-2.65-26.62-4.17-39.91C556.08,140.19,555.14,135.26,554.28,129.74 M476.96,72.7
					c22.77-2.48,44.91-4.88,67.23-7.31c-0.04-0.93,0.03-1.68-0.13-2.38c-2.55-10.68-4.85-21.45-7.83-32.01
					c-1.33-4.71-3.65-9.25-6.22-13.44c-4.25-6.97-9.91-7.86-15.81-2.27c-4.1,3.89-7.81,8.42-10.83,13.19
					c-7.83,12.41-15.19,25.1-22.71,37.69C479.46,68.17,478.36,70.21,476.96,72.7 M431.02,164.69c-0.33,0.45-0.74,0.82-0.94,1.27
					c-5.31,12.17-10.68,24.29-15.82,36.53c-1.01,2.43-1.4,5.23-1.58,7.89c-0.34,4.81,2.17,7.11,6.76,5.83
					c4.22-1.17,8.57-2.58,12.23-4.88c11.69-7.35,23.09-15.17,34.61-22.79c0.59-0.39,1.24-0.72,2.07-1.2
					C455.46,179.52,443.31,172.15,431.02,164.69 M564.11,114.73c2.26-1.74,4.05-3.05,5.74-4.47c9.2-7.64,18.48-15.19,27.49-23.05
					c2.45-2.14,4.35-5.09,5.95-7.98c2.17-3.91,0.75-6.96-3.59-8.19c-2.04-0.58-4.26-0.9-6.38-0.82c-7.86,0.34-15.71,0.87-23.56,1.4
					c-4.25,0.28-8.5,0.72-13.12,1.12C559.14,86.79,561.57,100.41,564.11,114.73"/>
			</g>
			<g>
				<path style="fill:#ED1C24;" d="M502.58,0c-11.68,8.47-18.36,20.05-25.35,31.29c-22.77,36.59-43.82,74.16-63.88,112.3
					c-9.33,17.76-18.07,35.85-26.8,53.92c-2.43,5.01-4.09,10.44-5.69,15.82c-1.68,5.66-1.96,11.19,4.7,14.52
					c-0.15,0.23-0.31,0.46-0.46,0.69c-2.81-0.44-5.7-0.58-8.4-1.38c-5.1-1.49-8.28-5.3-7.75-10.59c0.52-5.28,1.39-10.88,3.7-15.55
					c8.96-18.08,18.48-35.89,27.99-53.69c1.48-2.78,1.29-4.07-1.29-5.94c-10.05-7.3-19.96-14.81-28.2-24.24
					c-4.11-4.7-7.61-9.69-7.4-16.39c0.16-5.42,2.55-9.46,7.1-12.33c5.57-3.51,11.93-4.34,18.22-5.27
					c16.44-2.43,32.92-4.66,49.35-7.18c1.47-0.23,3.13-1.74,3.98-3.11c8.98-14.37,17.52-29.02,26.81-43.19
					c5.11-7.81,11.17-15.08,17.3-22.14C490.38,3.1,495.64,0.42,502.58,0 M404.85,140.34c10.34-18.96,20.21-37.08,30.25-55.45
					c-1.59,0-2.67-0.12-3.73,0.01c-12.75,1.59-25.51,3.11-38.24,4.87c-5.12,0.71-10.3,1.55-15.2,3.12
					c-7.35,2.34-9.34,7.52-6.16,14.52c0.88,1.95,1.95,3.91,3.36,5.51c3.54,4.07,7.07,8.19,11.07,11.8
					C392.08,130.05,398.36,134.95,404.85,140.34"/>
			</g>
		</g>
		<g>
			<path style="fill:#ED1C24;" d="M0,380.45v-0.14c0-14.24,11.24-25.91,26.7-25.91s26.56,11.52,26.56,25.77v0.14
				c0,14.25-11.24,25.91-26.7,25.91S0,394.7,0,380.45z M41.73,380.45v-0.14c0-8.59-6.3-15.75-15.18-15.75s-15.03,7.01-15.03,15.61
				v0.14c0,8.59,6.3,15.75,15.18,15.75C35.58,396.06,41.73,389.04,41.73,380.45z"/>
			<path style="fill:#ED1C24;" d="M73.8,360.34c0-3.08,2.43-5.51,5.51-5.51s5.51,2.43,5.51,5.51v35.01h20.4
				c2.79,0,5.01,2.22,5.01,5.01c0,2.79-2.22,5.01-5.01,5.01H79.31c-3.08,0-5.51-2.43-5.51-5.51L73.8,360.34L73.8,360.34z"/>
			<path style="fill:#ED1C24;" d="M133.35,386.04l-16.18-21.98c-0.79-1.07-1.36-2.36-1.36-3.94c0-2.93,2.43-5.3,5.51-5.3
				c2.51,0,4.08,1.36,5.44,3.36l12.17,17.54l12.38-17.68c1.36-2,3.01-3.29,5.3-3.29c3.36,0,5.37,2.36,5.37,5.37
				c0,1.5-0.72,2.86-1.43,3.87l-16.18,21.83v14.46c0,3.08-2.43,5.51-5.51,5.51s-5.51-2.43-5.51-5.51L133.35,386.04L133.35,386.04z"
				/>
			<path style="fill:#ED1C24;" d="M180.23,360.48c0-3.08,2.43-5.51,5.51-5.51h1.22c2.36,0,4.01,1.22,5.01,2.86l13.32,21.69
				l13.39-21.76c1.15-1.86,2.72-2.79,4.94-2.79h1.22c3.08,0,5.51,2.43,5.51,5.51v39.8c0,3.08-2.43,5.51-5.51,5.51
				c-3.01,0-5.44-2.5-5.44-5.51V375.3l-9.66,14.89c-1.15,1.72-2.58,2.79-4.58,2.79s-3.44-1.07-4.58-2.79l-9.52-14.67v24.91
				c0,3.01-2.43,5.37-5.44,5.37c-3.01,0-5.37-2.36-5.37-5.37v-39.95H180.23z"/>
			<path style="fill:#ED1C24;" d="M253.1,360.77c0-3.08,2.43-5.51,5.51-5.51h14.96c11.95,0,19.18,7.09,19.18,17.32v0.14
				c0,11.6-9.02,17.61-20.26,17.61h-8.38v9.95c0,3.08-2.43,5.51-5.51,5.51c-3.08,0-5.51-2.43-5.51-5.51v-39.51H253.1z
				 M272.86,380.52c5.51,0,8.73-3.29,8.73-7.59v-0.14c0-4.94-3.44-7.59-8.95-7.59h-8.52v15.32L272.86,380.52L272.86,380.52z"/>
			<path style="fill:#ED1C24;" d="M312.15,360.34c0-3.08,2.43-5.51,5.51-5.51c3.08,0,5.51,2.43,5.51,5.51v39.95
				c0,3.08-2.43,5.51-5.51,5.51c-3.08,0-5.51-2.43-5.51-5.51V360.34z"/>
			<path style="fill:#ED1C24;" d="M343.65,398.28l17.47-39.44c1.22-2.72,3.44-4.37,6.44-4.37h0.65c3.01,0,5.15,1.65,6.37,4.37
				l17.47,39.44c0.36,0.79,0.57,1.5,0.57,2.22c0,2.94-2.29,5.3-5.23,5.3c-2.58,0-4.29-1.5-5.3-3.79l-3.36-7.87h-22.05l-3.51,8.23
				c-0.93,2.15-2.79,3.44-5.08,3.44c-2.86,0-5.08-2.29-5.08-5.15C343,399.85,343.29,399.06,343.65,398.28z M374.64,384.39
				l-6.94-16.54l-6.94,16.54H374.64z"/>
			<path style="fill:#ED1C24;" d="M442,380.45v-0.14c0-14.24,10.74-25.91,26.13-25.91c7.52,0,12.6,2,16.75,5.08
				c1.15,0.86,2.15,2.43,2.15,4.37c0,3.01-2.43,5.37-5.44,5.37c-1.5,0-2.51-0.57-3.29-1.07c-3.08-2.29-6.3-3.58-10.24-3.58
				c-8.45,0-14.53,7.01-14.53,15.61v0.14c0,8.59,5.94,15.75,14.53,15.75c4.65,0,7.73-1.43,10.88-3.94c0.86-0.72,2.01-1.22,3.29-1.22
				c2.79,0,5.15,2.29,5.15,5.08c0,1.72-0.86,3.08-1.86,3.94c-4.51,3.94-9.81,6.3-17.82,6.3C452.95,406.22,442,394.84,442,380.45z"/>
			<path style="fill:#ED1C24;" d="M508.28,360.34c0-3.08,2.43-5.51,5.51-5.51s5.51,2.43,5.51,5.51v39.95c0,3.08-2.43,5.51-5.51,5.51
				s-5.51-2.43-5.51-5.51V360.34z"/>
			<path style="fill:#ED1C24;" d="M554.23,365.42h-10.6c-2.79,0-5.08-2.29-5.08-5.08c0-2.79,2.29-5.08,5.08-5.08h32.21
				c2.79,0,5.08,2.29,5.08,5.08c0,2.79-2.29,5.08-5.08,5.08h-10.6v34.86c0,3.08-2.43,5.51-5.51,5.51s-5.51-2.43-5.51-5.51
				L554.23,365.42L554.23,365.42z"/>
			<path style="fill:#ED1C24;" d="M612.78,386.04l-16.18-21.98c-0.79-1.07-1.36-2.36-1.36-3.94c0-2.93,2.44-5.3,5.51-5.3
				c2.5,0,4.08,1.36,5.44,3.36l12.17,17.54l12.38-17.68c1.36-2,3.01-3.29,5.3-3.29c3.36,0,5.37,2.36,5.37,5.37
				c0,1.5-0.72,2.86-1.43,3.87l-16.18,21.83v14.46c0,3.08-2.43,5.51-5.51,5.51s-5.51-2.43-5.51-5.51V386.04z"/>
			<path style="fill:#ED1C24;" d="M692.95,357.76c0-1.57,1.29-2.86,2.79-2.86c1.57,0,2.86,1.29,2.86,2.86v19.76h28.92v-19.76
				c0-1.57,1.29-2.86,2.86-2.86c1.5,0,2.79,1.29,2.79,2.86v45.1c0,1.58-1.29,2.86-2.79,2.86c-1.57,0-2.86-1.29-2.86-2.86v-20.04
				H698.6v20.04c0,1.58-1.29,2.86-2.86,2.86c-1.5,0-2.79-1.29-2.79-2.86V357.76z"/>
			<path style="fill:#ED1C24;" d="M755.87,380.45v-0.14c0-13.82,10.38-25.91,25.63-25.91s25.48,11.95,25.48,25.77v0.14
				c0,13.82-10.38,25.91-25.63,25.91S755.87,394.27,755.87,380.45z M801.11,380.45v-0.14c0-11.38-8.3-20.69-19.76-20.69
				c-11.45,0-19.61,9.16-19.61,20.55v0.14c0,11.38,8.3,20.69,19.76,20.69S801.11,391.84,801.11,380.45z"/>
			<path style="fill:#ED1C24;" d="M839.47,360.48h-14.53c-1.43,0-2.65-1.15-2.65-2.58s1.22-2.65,2.65-2.65h34.79
				c1.43,0,2.65,1.22,2.65,2.65c0,1.43-1.22,2.58-2.65,2.58H845.2v42.38c0,1.58-1.29,2.86-2.86,2.86s-2.86-1.29-2.86-2.86
				L839.47,360.48L839.47,360.48z"/>
			<path style="fill:#ED1C24;" d="M883.35,402.5v-44.38c0-1.57,1.29-2.86,2.79-2.86h31.14c1.43,0,2.58,1.15,2.58,2.58
				s-1.15,2.58-2.58,2.58H889v17.11h25.05c1.43,0,2.58,1.22,2.58,2.58c0,1.43-1.15,2.58-2.58,2.58H889v17.54h28.63
				c1.43,0,2.58,1.14,2.58,2.58s-1.15,2.58-2.58,2.58h-31.5C884.64,405.36,883.35,404.08,883.35,402.5z"/>
			<path style="fill:#ED1C24;" d="M942.04,357.76c0-1.57,1.29-2.86,2.79-2.86c1.57,0,2.86,1.29,2.86,2.86v42.38h25.99
				c1.43,0,2.58,1.22,2.58,2.65s-1.15,2.58-2.58,2.58h-28.85c-1.5,0-2.79-1.29-2.79-2.86V357.76z"/>
		</g>
		<g>
			<path style="fill:#ED1C24;" d="M271.03,442.02c0-0.64,0.52-1.16,1.13-1.16h6.44c4.57,0,7.57,2.43,7.57,6.42v0.06
				c0,4.36-3.64,6.62-7.95,6.62h-4.91v6.13c0,0.64-0.52,1.16-1.16,1.16c-0.61,0-1.13-0.52-1.13-1.16v-18.07H271.03z M278.31,451.88
				c3.35,0,5.55-1.79,5.55-4.45v-0.06c0-2.89-2.17-4.39-5.43-4.39h-5.11v8.9H278.31z"/>
			<path style="fill:#ED1C24;" d="M316.34,441.88c0-0.64,0.52-1.16,1.13-1.16c0.64,0,1.16,0.52,1.16,1.16v7.98h11.67v-7.98
				c0-0.64,0.52-1.16,1.16-1.16c0.61,0,1.13,0.52,1.13,1.16v18.21c0,0.64-0.52,1.16-1.13,1.16c-0.64,0-1.16-0.52-1.16-1.16V452
				h-11.67v8.09c0,0.64-0.52,1.16-1.16,1.16c-0.61,0-1.13-0.52-1.13-1.16V441.88z"/>
			<path style="fill:#ED1C24;" d="M364.31,441.91c0-0.61,0.52-1.13,1.13-1.13h0.32c0.52,0,0.84,0.26,1.16,0.66l12.28,15.66v-15.26
				c0-0.61,0.49-1.13,1.13-1.13c0.61,0,1.1,0.52,1.1,1.13v18.26c0,0.61-0.43,1.07-1.04,1.07h-0.12c-0.49,0-0.84-0.29-1.18-0.69
				l-12.54-16.04v15.66c0,0.61-0.49,1.13-1.13,1.13c-0.61,0-1.1-0.52-1.1-1.13v-18.19H364.31z"/>
			<path style="fill:#ED1C24;" d="M412.25,451.04v-0.06c0-5.58,4.19-10.46,10.34-10.46s10.29,4.82,10.29,10.4v0.06
				c0,5.57-4.19,10.46-10.35,10.46C416.38,461.44,412.25,456.62,412.25,451.04z M430.51,451.04v-0.06c0-4.6-3.35-8.35-7.98-8.35
				s-7.92,3.7-7.92,8.29v0.06c0,4.59,3.35,8.35,7.98,8.35S430.51,455.63,430.51,451.04z"/>
			<path style="fill:#ED1C24;" d="M463.71,441.91c0-0.61,0.52-1.13,1.13-1.13h0.26c0.49,0,0.84,0.26,1.07,0.61l7.22,10.86
				l7.22-10.86c0.23-0.38,0.61-0.61,1.07-0.61h0.26c0.61,0,1.13,0.52,1.13,1.13v18.18c0,0.64-0.52,1.16-1.13,1.16
				c-0.64,0-1.16-0.55-1.16-1.16v-15.08l-6.47,9.51c-0.26,0.38-0.55,0.58-0.95,0.58s-0.72-0.2-0.98-0.58l-6.44-9.48v15.08
				c0,0.64-0.49,1.13-1.13,1.13c-0.61,0-1.1-0.49-1.1-1.13L463.71,441.91L463.71,441.91z"/>
			<path style="fill:#ED1C24;" d="M549.48,442.02c0-0.64,0.52-1.16,1.13-1.16h6.44c4.57,0,7.57,2.43,7.57,6.42v0.06
				c0,4.36-3.64,6.62-7.95,6.62h-4.91v6.13c0,0.64-0.52,1.16-1.16,1.16c-0.61,0-1.13-0.52-1.13-1.16L549.48,442.02L549.48,442.02z
				 M556.76,451.88c3.35,0,5.55-1.79,5.55-4.45v-0.06c0-2.89-2.17-4.39-5.43-4.39h-5.11v8.9H556.76z"/>
			<path style="fill:#ED1C24;" d="M594.79,459.94v-17.92c0-0.64,0.52-1.16,1.13-1.16h12.57c0.58,0,1.04,0.46,1.04,1.04
				c0,0.58-0.46,1.04-1.04,1.04h-11.41v6.91h10.11c0.58,0,1.04,0.49,1.04,1.04c0,0.58-0.46,1.04-1.04,1.04h-10.11v7.08h11.56
				c0.58,0,1.04,0.46,1.04,1.04s-0.46,1.04-1.04,1.04h-12.71C595.31,461.09,594.79,460.57,594.79,459.94z"/>
			<path style="fill:#ED1C24;" d="M640.15,441.91c0-0.61,0.52-1.13,1.13-1.13h0.32c0.52,0,0.84,0.26,1.16,0.66l12.28,15.66v-15.26
				c0-0.61,0.49-1.13,1.13-1.13c0.61,0,1.1,0.52,1.1,1.13v18.26c0,0.61-0.43,1.07-1.04,1.07h-0.12c-0.49,0-0.84-0.29-1.18-0.69
				l-12.54-16.04v15.66c0,0.61-0.49,1.13-1.13,1.13c-0.61,0-1.1-0.52-1.1-1.13v-18.19H640.15z"/>
			<path style="fill:#ED1C24;" d="M688.99,441.88c0-0.64,0.52-1.16,1.13-1.16c0.64,0,1.16,0.52,1.16,1.16v7.98h11.67v-7.98
				c0-0.64,0.52-1.16,1.16-1.16c0.61,0,1.13,0.52,1.13,1.16v18.21c0,0.64-0.52,1.16-1.13,1.16c-0.64,0-1.16-0.52-1.16-1.16V452
				h-11.67v8.09c0,0.64-0.52,1.16-1.16,1.16c-0.61,0-1.13-0.52-1.13-1.16V441.88z"/>
		</g>
	</g>
</g>
</svg>
